<?xml version="1.0" encoding="utf-8"?>
<!-- Generator: Adobe Illustrator 24.3.0, SVG Export Plug-In . SVG Version: 6.00 Build 0)  -->
<svg version="1.1" id="Layer_1" xmlns="http://www.w3.org/2000/svg" xmlns:xlink="http://www.w3.org/1999/xlink" x="0px" y="0px"
	 viewBox="0 0 52.7 18.2" style="enable-background:new 0 0 52.7 18.2;" xml:space="preserve">
<style type="text/css">
	.st0{fill-rule:evenodd;clip-rule:evenodd;fill:#FFFFFF;}
</style>
<path class="st0" d="M23.2,0l-1.4,0.1c-0.4,0-0.6,0-0.6,0.1c0,0.2,0.3,0,0.4,0.8l0.4,9.4c0,0.5-0.4,0.5-0.4,0.7c0,0,0.1,0.1,0.2,0.1
	l1.9-0.1c1.8-0.1,3.3-2.3,3.1-6.6C26.7,1.5,25-0.1,23.2,0z M24.8,3.1L25,7.3c0,0.9-0.3,3-1,3c-0.3,0-0.4,0-0.4-0.2l-0.4-9.3
	c0-0.2,0.1-0.2,0.3-0.2C24.5,0.6,24.8,2,24.8,3.1z M28.7,2.6c0,0.1,0.2,0.2,0.2,0.5c0,0.2-0.1,0.4-0.2,0.7l-1.9,6
	c-0.4,1.1-0.7,0.9-0.7,1.1c0,0.1,0,0.1,0.1,0.1l1.5,0c0.1,0,0.1,0,0.1-0.1c0-0.2-0.5-0.1-0.3-0.7l0.5-1.4L29.3,9l0.1,1.4
	c0.1,0.7-0.3,0.5-0.3,0.7c0,0.1,0.1,0.1,0.2,0.1l1.9,0.1c0.1,0,0.2,0,0.2-0.1c0-0.2-0.2,0-0.3-0.8l-0.6-7.2c0-0.5-0.1-0.6-0.2-0.6
	L28.7,2.6C28.7,2.6,28.7,2.6,28.7,2.6z M29,6l0.2,2.4L28,8.2l0.7-2.3C28.9,5.4,29,5.5,29,6z M33,3.1c0,0.1,0.4,0.3,0.3,0.7l-1.4,6.9
	c-0.1,0.6-0.2,0.4-0.3,0.5c0,0.1,0.1,0.1,0.1,0.1l1,0.2c0.1,0,0.1,0,0.1-0.1c0-0.2-0.4,0-0.2-1L33.4,7c0-0.1,0.1-0.1,0.1,0l0.8,4.9
	c0,0.1,0,0.1,0.1,0.1l0.9,0.3c0,0,0.1,0,0.1,0c0-0.1-0.1,0,0-0.2l2-7.1c0.2-0.7,0.4-0.5,0.4-0.6c0-0.1,0-0.1-0.2-0.2l-0.8-0.3
	c-0.2-0.1-0.3-0.1-0.3,0c0,0.1,0.2,0.1,0.1,0.6l-1.1,3.9c-0.1,0.2-0.2-0.1-0.3-0.5l-0.8-4.3c-0.1-0.3-0.1-0.4-0.2-0.4L33.2,3
	C33.1,3,33,3,33,3.1z M18.4,3.2L17,3.6c-0.1,0-0.1,0-0.1,0.1c0,0.1,0.2,0.1,0.3,0.3c0,0.2,0,0.4-0.1,0.5l-0.8,2.1
	c0,0.1-0.1,0.2-0.2,0.2c0,0-0.1,0-0.1-0.1l-0.5-2.2C15.5,4,15.9,4,15.9,3.8c0,0,0-0.1-0.1,0l-2.2,0.5c-0.1,0-0.1,0-0.1,0.1
	c0,0.1,0.3,0,0.4,0.5l1.6,6.9c0.1,0.5-0.3,0.5-0.2,0.7c0,0.1,0.1,0.1,0.2,0l2.1-0.6c0.1,0,0.1,0,0-0.1c0-0.1-0.4,0-0.4-0.3l-0.8-3.4
	c0-0.1,0-0.2,0.1-0.3c0.1,0,0.1,0.1,0.2,0.2l1.6,3.6c0.1,0.1,0.1,0.2,0.3,0.2l1.9-0.3c0.1,0,0.1,0,0.1-0.1c0-0.2-0.5,0-0.7-0.4
	l-1.6-3.6c-0.1-0.1-0.1-0.1-0.2-0.1c-0.2,0.1-1.2,0.3-1.3-0.1c0-0.2,0.2-0.6,0.4-1.4l0.5-1.2C18.2,3.3,18.5,3.4,18.4,3.2
	C18.5,3.2,18.5,3.2,18.4,3.2z M38.6,4.5c-0.1,0.2,0.4,0.2,0.1,1.1l-2.1,5.8c-0.3,0.9-0.7,0.6-0.8,0.8c0,0.1,0,0.1,0.1,0.2l2.1,0.7
	c0.1,0,0.2,0,0.2,0c0.1-0.2-0.4-0.2-0.1-1.1l2-5.8C40.6,5.2,41,5.6,41,5.4c0-0.1,0-0.1-0.1-0.2l-2.1-0.7C38.7,4.4,38.6,4.4,38.6,4.5
	z M12.4,4.5c-0.1,0-0.1,0.3-0.3,0.4c-0.3,0.1-0.9,0.2-1.2,0.3c-1.4,0.5-1.2,2.9-0.8,4.3c0.9,2.9,2.6,4.1,3.9,3.7
	c0.8-0.3,1.1-1.3,0.9-2c-0.2-0.5-0.4-0.9-0.9-1c-0.1,0-0.2,0-0.1,0.2c0.1,0.2,0.3,0.5,0.4,0.7c0.1,0.3,0.2,1.5-0.4,1.7
	c-0.7,0.2-1.2-1.1-1.4-1.7L11.2,7c-0.1-0.4-0.5-1.4,0.3-1.6c0.7-0.2,1.3,0.8,1.4,0.8c0,0,0.1,0,0-0.1L12.4,4.5
	C12.5,4.6,12.4,4.5,12.4,4.5z M41.9,5.5c-0.1,0.2,0.4,0.2,0,1.1l-2.6,5.6c-0.4,0.9-0.8,0.6-0.9,0.8c0,0.1,0,0.1,0.1,0.2l3.1,1.3
	l0.8-1c0.1-0.1,0-0.2,0-0.2c-0.3,0.1-1.1,0.5-1.5,0.4c-0.4-0.2-0.4-0.3-0.3-0.5l1.3-2.9c0.1-0.2,0.3-0.3,0.6-0.2
	c0.4,0.2-0.1,1.2,0.2,1.4c0.1,0,0.2,0,0.2-0.2l1-2.1c0.1-0.1,0.1-0.3,0-0.3c-0.3-0.1-0.6,0.9-1.1,0.7c-0.3-0.1-0.3-0.3-0.2-0.6
	l0.7-1.6c0.3-0.7,0.3-0.8,0.6-0.6c0.6,0.3,0.8,1.1,0.7,1.4c0,0.3,0.1,0.5,0.2,0.2L45.3,7l-3.3-1.5C42,5.4,41.9,5.5,41.9,5.5z
	 M2.1,6.5c-0.7,0.5-1.3,0.9-2,1.4C0,7.9,0,8,0.1,8c0.3-0.1,0.5,0.1,0.7,0.4l3.9,6.2c0.4,0.6,1.2,2,0.2,2.6c-0.8,0.5-1.6,0-2-0.6
	c-0.4-0.6-0.4-1.5,0-1.7c0.2-0.1,0.2-0.1,0.4-0.1c-0.1-0.1-0.1-0.3-0.2-0.4c-0.3-0.5-0.9-0.5-1.4-0.2C1,14.6,1,15.9,1.6,16.8
	c0.8,1.3,2.4,1.7,3.7,0.9c2-1.3,1.4-3.4,0.6-4.6L2.4,7.4C2.1,6.9,2,6.9,2.2,6.6C2.2,6.5,2.2,6.4,2.1,6.5z M50.1,6.8
	c-0.4,0-0.7,0.4-0.7,0.8c0,0.2,0.1,0.4,0.3,0.5c0,0.3-0.5,0.2-0.4,0.4c0,0.1,0.1,0.1,0.3,0.1c0.4,0,1.5-0.4,1.4-1.2
	C50.9,7.1,50.5,6.8,50.1,6.8z M46.2,7.5c-0.1,0.2,0.4,0.2-0.1,1.1L43,14c-0.4,0.8-0.9,0.4-1,0.6c0,0.1,0,0.1,0.1,0.2l3,1.7l1-1
	c0.1,0,0.1-0.1,0-0.2c-0.1-0.1-1.2,0.5-1.7,0.2c-0.3-0.2-0.3-0.2,0-0.7l3.1-5.4C48,8.5,48.3,9,48.5,8.8c0-0.1,0-0.1-0.1-0.2l-2-1.1
	C46.3,7.4,46.2,7.4,46.2,7.5z M48.9,10.9c-1,1.6-0.2,5.2-0.6,5.9c-0.4,0.6-0.7,0.8-1.2,0.5c-0.9-0.5-0.8-1.4-0.5-1.8
	c0-0.1,0.1-0.2,0-0.2c0,0-0.1,0-0.2,0.1l-1,1.3c0,0-0.1,0.1-0.1,0.2c0.1,0,0.4-0.1,0.6,0c0.2,0.1,0.3,0.7,1,1.1
	c1.1,0.7,2.1-0.1,2.5-0.8c1.2-2.1,0.1-4.8,0.8-6c0.2-0.3,0.6-0.5,0.9-0.3c0.5,0.3,0.6,1.1,0.5,1.6c-0.1,0.2-0.2,0.6-0.1,0.6
	c0.1,0,0.1-0.1,0.2-0.2l0.8-1c0.1-0.1,0.1-0.2,0.1-0.2c-0.1-0.1-0.1,0.1-0.3-0.1c-0.3-0.2-0.5-0.9-1.1-1.3
	C50.4,9.7,49.2,10.4,48.9,10.9z M5.2,7.6C5,7.7,5,8,5.3,8c0.2,0,0.3,0.1,0.4,0.6l1.7,6.7c0.1,0.3,0,0.6-0.2,0.8c0,0.1,0,0.2,0.1,0.1
	c0.3-0.1,1.2-0.8,1.4-0.8c0.1,0,0-0.1-0.1-0.1c-0.4,0.1-0.4-0.1-0.5-0.5l-0.3-1.3L9,12.7l0.8,1c0.2,0.2,0.2,0.6,0,0.8
	c-0.1,0.1,0,0.2,0.1,0.2c0.8-0.4,1.5-0.8,2.3-1.2c0.1-0.1,0-0.2-0.1-0.2c-0.2,0-0.3,0-0.6-0.3l-4.8-6C6.3,7.1,5.7,7.4,5.2,7.6z
	 M7.2,10.5l1.4,1.7l-1,0.5L7,10.6c0-0.1-0.1-0.3,0-0.3C7,10.3,7.1,10.4,7.2,10.5z"/>
</svg>
