<svg id="Layer_1" data-name="Layer 1" xmlns="http://www.w3.org/2000/svg" viewBox="0 0 300 300"><defs><style>.cls-1{fill:#997650;}.cls-2,.cls-3,.cls-4,.cls-5,.cls-6,.cls-7{fill:none;stroke:#fff;stroke-miterlimit:10;stroke-width:11.83px;}.cls-3{stroke-dasharray:20.32 20.32;}.cls-4{stroke-dasharray:18.53 18.53;}.cls-5{stroke-dasharray:19.98 19.98;}.cls-6{stroke-dasharray:19.67 19.67;}.cls-7{stroke-dasharray:14.4 14.4;}.cls-8{fill:#1d1d1b;}</style></defs><path class="cls-1" d="M241.34,151.21a20,20,0,0,1,20-20V9.86H37.8V289.32H261.37V171.24A20,20,0,0,1,241.34,151.21Z"/><path class="cls-2" d="M251.9,133.56a19.88,19.88,0,0,1,9.47-2.38v-9.86"/><line class="cls-3" x1="261.37" y1="101" x2="261.37" y2="29.87"/><polyline class="cls-2" points="261.37 19.71 261.37 9.86 251.51 9.86"/><line class="cls-4" x1="232.98" y1="9.86" x2="56.93" y2="9.86"/><polyline class="cls-2" points="47.66 9.86 37.8 9.86 37.8 19.71"/><line class="cls-5" x1="37.8" y1="39.69" x2="37.8" y2="269.47"/><polyline class="cls-2" points="37.8 279.46 37.8 289.32 47.66 289.32"/><line class="cls-4" x1="66.19" y1="289.32" x2="242.25" y2="289.32"/><polyline class="cls-2" points="251.51 289.32 261.37 289.32 261.37 279.46"/><line class="cls-6" x1="261.37" y1="259.79" x2="261.37" y2="190.94"/><path class="cls-2" d="M261.37,181.1v-9.86a20,20,0,0,1-9.47-2.37"/><path class="cls-7" d="M242.61,158.25A20.08,20.08,0,0,1,246.3,138"/><path class="cls-8" d="M82.89,114.61h17.63c3.9,0,5.32-1,7.57-4.85l1.89-3.55c.36-.47.71-.83,1.18-.83s.83.59.6,1.66l-3.32,15.26c-.23.83-.59,1.18-1.42,1.18H69.52c-1.42,0-1.89-3.07-.94-4.26C84.9,97.81,93.78,75.1,93.78,57.71c0-11.83-4.5-14.55-9-14.55-5.32,0-9.34,6.15-11.71,13.36-.35,1.07-1.54.83-1.54-.11l.83-18.81c0-.83,1-1,1.3-.12a3.29,3.29,0,0,0,3.2,1.65c2.72,0,5.44-2,12.66-2,10.29,0,19.87,6.63,19.87,21.77,0,17.63-13.72,37.5-27.09,53.83C81.47,113.78,81.59,114.61,82.89,114.61Z"/></svg>