<svg id="Layer_1" data-name="Layer 1" xmlns="http://www.w3.org/2000/svg" viewBox="0 0 300 300"><defs><style>.cls-1{fill:#997650;}.cls-2,.cls-3,.cls-4,.cls-5,.cls-6,.cls-7{fill:none;stroke:#fff;stroke-miterlimit:10;stroke-width:11.83px;}.cls-3{stroke-dasharray:20.32 20.32;}.cls-4{stroke-dasharray:18.53 18.53;}.cls-5{stroke-dasharray:19.98 19.98;}.cls-6{stroke-dasharray:19.67 19.67;}.cls-7{stroke-dasharray:14.4 14.4;}.cls-8{fill:#1d1d1b;}</style></defs><path class="cls-1" d="M241.34,151.21a20,20,0,0,1,20-20V9.86H37.8V289.32H261.37V171.24A20,20,0,0,1,241.34,151.21Z"/><path class="cls-2" d="M251.9,133.56a19.88,19.88,0,0,1,9.47-2.38v-9.86"/><line class="cls-3" x1="261.37" y1="101" x2="261.37" y2="29.87"/><polyline class="cls-2" points="261.37 19.71 261.37 9.86 251.51 9.86"/><line class="cls-4" x1="232.98" y1="9.86" x2="56.93" y2="9.86"/><polyline class="cls-2" points="47.66 9.86 37.8 9.86 37.8 19.71"/><line class="cls-5" x1="37.8" y1="39.69" x2="37.8" y2="269.47"/><polyline class="cls-2" points="37.8 279.46 37.8 289.32 47.66 289.32"/><line class="cls-4" x1="66.19" y1="289.32" x2="242.25" y2="289.32"/><polyline class="cls-2" points="251.51 289.32 261.37 289.32 261.37 279.46"/><line class="cls-6" x1="261.37" y1="259.79" x2="261.37" y2="190.94"/><path class="cls-2" d="M261.37,181.1v-9.86a20,20,0,0,1-9.47-2.37"/><path class="cls-7" d="M242.61,158.25A20.08,20.08,0,0,1,246.3,138"/><path class="cls-8" d="M78.51,73.91h1.9c5.91,0,13-4.73,13-16.91v-.71c0-9.23-4.38-13.73-9.23-13.73-5.2,0-9,5-11.47,12.66-.24.71-1.54.71-1.54-.23l.47-18c0-.47.71-.47.95-.11a3.09,3.09,0,0,0,2.84,1.65c2.6,0,7.1-1.42,12-1.42,10.29,0,20.82,4.85,20.82,18.46,0,8.75-5.33,15-12.78,18.81a.8.8,0,0,0,.12,1.54c10,3.19,14.91,11.12,14.91,22,0,13.72-8.17,26.74-23.07,26.74-11.83,0-18.58-7.34-18.58-17.4A12.85,12.85,0,0,1,74.61,96c1.54-1,3.55-1.54,2.48,1.06a21.85,21.85,0,0,0-1.53,8.4c0,4.85,2.48,14.43,9.46,14.43,5.09,0,9.7-6.15,9.7-20V96.15c0-13.24-6.27-16.44-12-16.44H79.34Z"/></svg>