<svg id="Layer_1" data-name="Layer 1" xmlns="http://www.w3.org/2000/svg" viewBox="0 0 300 300"><defs><style>.cls-1{fill:#997650;}.cls-2,.cls-3,.cls-4,.cls-5,.cls-6,.cls-7{fill:none;stroke:#fff;stroke-miterlimit:10;stroke-width:11.83px;}.cls-3{stroke-dasharray:20.32 20.32;}.cls-4{stroke-dasharray:18.53 18.53;}.cls-5{stroke-dasharray:19.98 19.98;}.cls-6{stroke-dasharray:19.67 19.67;}.cls-7{stroke-dasharray:14.4 14.4;}.cls-8{fill:#1d1d1b;}</style></defs><path class="cls-1" d="M241.34,151.21a20,20,0,0,1,20-20V9.86H37.8V289.32H261.37V171.24A20,20,0,0,1,241.34,151.21Z"/><path class="cls-2" d="M251.9,133.56a19.88,19.88,0,0,1,9.47-2.38v-9.86"/><line class="cls-3" x1="261.37" y1="101" x2="261.37" y2="29.87"/><polyline class="cls-2" points="261.37 19.71 261.37 9.86 251.51 9.86"/><line class="cls-4" x1="232.98" y1="9.86" x2="56.93" y2="9.86"/><polyline class="cls-2" points="47.66 9.86 37.8 9.86 37.8 19.71"/><line class="cls-5" x1="37.8" y1="39.69" x2="37.8" y2="269.47"/><polyline class="cls-2" points="37.8 279.46 37.8 289.32 47.66 289.32"/><line class="cls-4" x1="66.19" y1="289.32" x2="242.25" y2="289.32"/><polyline class="cls-2" points="251.51 289.32 261.37 289.32 261.37 279.46"/><line class="cls-6" x1="261.37" y1="259.79" x2="261.37" y2="190.94"/><path class="cls-2" d="M261.37,181.1v-9.86a20,20,0,0,1-9.47-2.37"/><path class="cls-7" d="M242.61,158.25A20.08,20.08,0,0,1,246.3,138"/><path class="cls-8" d="M76.38,57.59c0-2.6-.71-3.43-2-3.43-1.65,0-3.43,1.18-4.73,1.89a1.1,1.1,0,0,1-1.3-1.77A255.1,255.1,0,0,0,88.69,36.89c.94-1,2.6-.6,2.6.59v79.38c0,2.72.71,3.9,4.73,5.68.48.23.36.94-.12.94H71.77c-.47,0-.59-.71-.12-.94,4-1.78,4.73-3,4.73-5.68Z"/></svg>