<?xml version="1.0" encoding="utf-8"?>
<!-- Generator: Adobe Illustrator 24.3.0, SVG Export Plug-In . SVG Version: 6.00 Build 0)  -->
<svg version="1.1" xmlns="http://www.w3.org/2000/svg" xmlns:xlink="http://www.w3.org/1999/xlink" x="0px" y="0px"
	 viewBox="0 0 946.9 849" style="enable-background:new 0 0 946.9 849;" xml:space="preserve">
<style type="text/css">
	.st0{fill:#FFFFFF;}
	.st1{fill:none;}
</style>
<g id="Layer_1">
</g>
<g id="Layer_2">
	<g>
		<g>
			<path class="st0" d="M266.4,113.2l15,18.5l-10.9,5.3l-6-23c-0.3-1.2-1-2.7-0.4-3C264.7,110.7,266,112.7,266.4,113.2 M245.4,82.4
				c-2,1-2.6,4.2,0.9,3.5c1.6-0.2,3.1,1.3,4.4,6.2l18.6,71.9c0.6,3.5,0.3,6-1.8,8.4c-0.5,0.6,0,1.9,0.7,1.6c3.1-1.5,13.4-8.2,14.9-9
				c0.8-0.4-0.2-1.4-1.1-1.2c-3.8,1-4.7-1-5.7-4.9l-3.7-14.5l13.4-7.1l8.4,10.4c2.1,2.2,2.4,6.7-0.3,8.6c-1.4,1-0.4,2.7,1.1,2
				c8.6-4.3,15.9-8.8,24.9-13.2c1.3-0.7,0.4-2.4-0.8-2.2c-2.5,0.2-3.4-0.4-6.1-3.7L261,74.8C257.4,76.6,250.8,79.7,245.4,82.4
				 M717.1,117.2c-10.7,17.7-2.4,56.6-6.8,63.8c-4.1,6.8-8.1,8.2-12.4,5.5c-9.9-5.9-8.2-14.7-5.3-19.4c0.4-0.7,0.8-1.7-0.2-2.4
				c-0.4-0.3-1.1,0.2-1.7,1.1l-10.7,13.6c-0.2,0.2-1.4,1.5-0.7,1.9c0.9,0.5,4.3-1.2,6.3,0c2,1.2,3.1,7.1,11.1,12
				c11.7,7,22.4-1.6,26.8-8.8c13.4-22.2,0.9-52.1,8.6-64.8c2-3.3,6.1-5.4,9.9-3.1c5.1,3.1,6.8,12.3,5.5,17.1c-0.5,2.1-2.3,6-1.6,6.4
				c0.7,0.4,1.6-0.7,2.6-2l8.3-11.3c0.8-1,1.2-2.1,0.7-2.4c-1.4-0.8-0.9,0.9-3.6-0.8c-3.1-1.8-5.8-9.9-12-13.5
				C733.2,104.9,720.3,111.8,717.1,117.2 M687.5,80.7c-1.2,2.1,4.4,2.7-0.9,12l-33.4,58.5c-4.7,8.3-9.3,4.5-10.5,6.5
				c-0.4,0.7,0.1,1.5,1.1,2l32.9,18.1l11.2-10.7c0.6-0.5,0.9-1.4,0.2-1.9c-1.3-0.7-13,5.2-18.5,2.1c-3-1.7-3.4-2.7-0.5-7.7l33.1-58
				c5.3-9.4,8.7-4.9,9.8-6.9c0.4-0.7-0.1-1.5-1.1-2l-21.2-12C688.8,80,687.9,80,687.5,80.7 M730.2,73.3c-4.5,0.4-7.9,4.4-7.5,8.9
				c0.2,2.4,1.4,4.5,3.2,5.8c0.3,3.3-5,1.7-4.7,4.7c0.1,0.8,0.8,1.1,2.8,0.9c4.6-0.4,15.7-4.3,15-12.9
				C738.6,76.3,734.7,72.9,730.2,73.3 M211.6,69.7c-7.8,4.9-14.5,10-21.8,14.6c-0.9,0.6-0.9,2.3,0.5,1.9c3.3-0.8,5.6,0.9,7.7,4.3
				l42.1,66.9c4.4,7,13.1,21.7,2.2,28.5c-9.2,5.7-17.2,0.1-21.4-6.6c-3.9-6.3-4.3-15.8,0.2-18.6c1.9-1.2,2.5-0.7,4-1.5
				c-0.9-1.4-1.1-3-1.8-4.2c-3.6-5.8-9.6-5.8-14.9-2.5c-8,5-8.3,19.5-2.2,29.3c8.6,13.8,26.4,17.9,40.1,9.3
				c21.9-13.7,15.1-36.5,6.8-49.7L214.6,80c-3.1-5-3.5-6-1.9-9.1C213,70.1,212.9,68.8,211.6,69.7 M640.8,59.6
				c-1,2.2,4.6,2.2,0.2,12.1l-27.7,60.7c-4.5,9.8-8.2,7-9.2,9.2c-0.3,0.7,0.2,1.4,1.3,1.9l33.9,14l8.2-11c0.6-0.8,0.4-1.7-0.4-2.1
				c-2.8,1.5-12,5.6-15.7,3.9c-4-1.8-4.3-2.7-3.1-5.4l14.5-31.8c1.2-2.5,3.3-3.3,5.9-2.1c4.7,2.1-1.2,13.4,2,14.9
				c0.8,0.4,1.7-0.5,2.4-2.1L663.5,99c0.6-1.3,0.7-2.8-0.2-3.2c-2.8-1.3-6.5,9.9-11.8,7.5c-2.9-1.3-3.5-3.7-2.4-6.2l7.9-17.1
				c3.3-7.2,3.8-8.2,6.9-6.8c6.7,3,8.4,11.8,8,15c-0.4,3,1.6,5,2.4,1.7l4.1-14.5l-35.4-16.1C642.1,58.8,641.2,58.9,640.8,59.6
				 M323,49c-1.1,0.4-1.1,3.2-2.8,3.8c-3,1-9.9,1.9-13.3,3c-15.7,5.1-13.4,31.2-8.3,46.8c10.1,31,28,44.3,42.2,39.6
				c8.8-2.9,12.3-13.6,9.7-21.4c-1.6-5-4.3-10.2-9.9-11.1c-1.1-0.3-2,0.2-0.7,1.9c1.5,1.8,3.4,5.6,4.1,8c0.9,2.8,1.7,16.2-4.2,18.1
				c-7.1,2.3-13.2-12.3-15.2-18.5l-14.3-43.9c-1.4-4.3-5-14.7,3-17.3c7.6-2.5,14.3,9,15.4,8.7c0.3-0.1,0.7-0.2,0.5-0.9l-5.2-15.9
				C323.8,49.4,323.4,48.8,323,49 M605.3,48.6c-0.8,2.3,4.8,1.8,1.2,12l-22.1,63c-3.6,10.2-7.7,6.3-8.5,8.6
				c-0.3,0.8,0.4,1.4,1.5,1.8l23.1,7.5c1.1,0.4,2,0.3,2.3-0.5c0.8-2.3-4.8-1.8-1.2-12l22-62.4c3.6-10.2,7.7-6.3,8.5-8.6
				c0.3-0.7-0.4-1.4-1.5-1.8l-23-8C606.4,47.8,605.5,47.9,605.3,48.6 M388.1,34.8l-15.2,3.6c-0.7,0.2-1.1,0.2-0.9,0.9
				c0.3,1.2,2.4,0.7,2.9,2.8c0.5,2-0.1,3.9-0.6,5.4l-8.5,22.7c-0.5,1.1-1.4,2.4-1.8,2.5c-0.5,0.1-0.8-0.5-1-1l-5.6-24.2
				c-1.1-4.5,3.2-4.2,2.7-6c-0.1-0.4-0.4-0.6-0.8-0.5L336,46.4c-0.9,0.2-1.1,0.4-1,1c0.4,1.6,3.2-0.1,4.5,5.2l17.4,74.6
				c1.2,5-2.9,5.2-2.4,7.2c0.2,0.8,0.7,0.8,2,0.5l23-6.8c0.5-0.1,0.5-0.5,0.5-0.9c-0.4-1.5-4.1-0.2-4.7-2.8l-8.6-37
				c-0.2-1,0.4-2.7,1.4-2.9c0.7-0.2,1.6,1.2,2.1,2.4l16.8,38.3c0.7,1.4,1.2,2,3.4,1.7l20.2-3.2c0.8-0.1,1-0.4,0.8-1.2
				c-0.4-2-5,0-7.2-4.4l-17-39.3c-0.6-1.3-1.2-1.5-2.1-1.3c-2.6,0.6-12.5,3.8-13.6-1.3c-0.4-1.6,1.9-6.7,4.8-14.7l5-13.1
				c4.4-12.8,8.1-11.7,7.7-13C388.8,34.8,388.5,34.7,388.1,34.8 M545.1,33c-0.4,1.5,4.3,3.6,3.4,7.9L533,115.8c-1.4,6-2.5,3.9-3,5.7
				c-0.1,0.6,0.6,0.9,1.4,1l10.9,1.8c1,0.2,1.3,0,1.5-0.8c0.4-1.6-4.3,0.2-1.9-11.3l7.6-37c0.3-1.4,1.2-1.1,1.5,0.2l9,52.5
				c0.1,0.7,0.5,1.1,1.1,1.3l9.4,3.1c0.5,0.1,1.2,0.2,1.2-0.2c0.2-0.6-0.8-0.1-0.2-2.4l21.6-76.6c2.1-7.7,4.4-5.2,4.7-6.4
				c0.2-0.9-0.5-1.1-2-1.6l-8.9-3c-1.8-0.7-2.7-0.7-2.9,0.1c-0.3,1.3,2.7,0.8,1,6.9L573.2,91c-0.6,2.1-2-0.8-2.9-5.1l-8.9-45.9
				c-0.6-3.4-0.7-4-2-4.3l-11.9-3C546.2,32.2,545.3,32.3,545.1,33 M502.6,64.3l2.2,25.4l-13.1-1.3l7.9-24.4
				C501.2,58.8,502.2,59.7,502.6,64.3 M498.4,28.3c-0.1,1.2,2.7,2.4,2.4,5c-0.2,2.1-1,4.2-2.3,8L477.6,106
				c-3.9,12.1-7.2,10.2-7.3,11.6c-0.1,0.8,0.2,1,1,1l15.7,0.2c0.6,0,0.9,0,1-0.7c0.2-1.8-5.8-0.5-3.5-7.7l5-15.3l15.8,1.5l1.3,15.2
				c0.7,7.9-2.8,5.8-3,7.7c-0.1,0.9,0.6,1.2,1.8,1.2l21,1.5c1.1,0.1,2,0,2.1-0.9c0.2-1.7-2.4,0.3-3.3-8.1l-6.7-77.5
				c-0.4-5.1-0.6-6-1.7-6.1l-17.5-1.7C498.9,27.9,498.4,27.8,498.4,28.3 M457.2,33.8l1.8,45c0.4,9.6-3.1,32.6-10.7,32.9
				c-2.7,0.1-4.3,0.5-4.4-1.9L440.1,8.9c-0.1-1.6,0.8-2,3.5-2.1C453.4,6.5,456.8,21.9,457.2,33.8 M439,0l-15.5,0.6
				c-4,0.2-6.3,0.5-6.3,1.6c0.1,2,3.7-0.2,4.1,9.1l4,101.4c0.2,5.3-4,5-3.9,7c0,0.4,0.7,0.7,2.4,0.7l20.7-0.9
				c19.1-0.7,35.5-25,33.7-71C476.9,15.8,458.9-0.8,439,0"/>
			<path class="st0" d="M716.4,197.8c1.3,0,2.6,0.3,3.7,1c1.1,0.7,2,1.6,2.7,2.7c0.7,1.1,1,2.4,1,3.7c0,1.3-0.3,2.5-1,3.7
				c-0.7,1.1-1.6,2-2.7,2.7c-1.1,0.7-2.4,1-3.7,1c-1.3,0-2.6-0.3-3.7-1c-1.2-0.7-2.1-1.5-2.7-2.7c-0.7-1.1-1-2.4-1-3.7
				c0-1.3,0.3-2.5,1-3.7c0.7-1.1,1.6-2,2.7-2.7C713.8,198.1,715,197.8,716.4,197.8 M716.4,199c-1.7,0-3.2,0.6-4.4,1.8
				c-1.2,1.2-1.8,2.6-1.8,4.3c0,1.7,0.6,3.1,1.8,4.3c1.2,1.2,2.7,1.8,4.4,1.8c1.7,0,3.2-0.6,4.4-1.8c1.2-1.2,1.8-2.6,1.8-4.3
				c0-1.7-0.6-3.1-1.8-4.3C719.5,199.6,718.1,199,716.4,199 M714.7,209.1h-1.3v-7.9h2.8c1,0,1.7,0.1,2.1,0.2c0.4,0.2,0.7,0.4,1,0.8
				c0.2,0.4,0.4,0.7,0.4,1.1c0,0.6-0.2,1.1-0.6,1.5c-0.4,0.4-1,0.6-1.6,0.7c0.3,0.1,0.6,0.3,0.8,0.6c0.3,0.3,0.6,0.7,1,1.4l1,1.5
				h-1.6l-0.7-1.2c-0.5-0.9-0.9-1.5-1.2-1.7c-0.3-0.3-0.7-0.4-1.2-0.4h-0.8V209.1z M714.7,202.3v2.4h1.6c0.7,0,1.2-0.1,1.5-0.3
				c0.3-0.2,0.5-0.5,0.5-0.9c0-0.4-0.2-0.7-0.5-0.9c-0.3-0.2-0.8-0.3-1.6-0.3H714.7z"/>
		</g>
		<g>
			<path class="st0" d="M123.4,778.4c0-14-2.6-23.1-5.7-31c-3.9-9.6,3.5-7.4,9.2-3.9c12.2,7.4,21.4,22.2,21.4,41.4
				c0,37.1-22.7,64.1-56.2,64.1c-65.4,0-92-82-92-174.4c0-79.4,20.9-148.3,85-148.3c17.9,0,26.2,4.8,35.8,4.8c3.5,0,7-1.3,10.5-6.5
				c0.9-1.3,3.5-1.3,3.5,0.4l1.7,67.2c0,3.5-4.8,3.5-5.7,0.9c-8.3-22.7-16.6-48.8-41.4-48.8c-17.4,0-27.5,17.4-27.5,93.7v90.7
				c0,76.3,16.1,102.5,33.1,102.5C116.4,831.1,123.4,796.2,123.4,778.4"/>
			<path class="st0" d="M271.7,728.7v-86.3c0-76.3-8.7-96.8-24.4-96.8s-24.4,20.5-24.4,96.8v86.3c0,76.3,8.7,101.2,24.4,101.2
				S271.7,805,271.7,728.7 M333.6,687.7c0,83.7-20.9,161.3-86.3,161.3c-65.4,0-86.3-77.6-86.3-161.3s20.9-161.3,86.3-161.3
				C312.7,526.3,333.6,603.9,333.6,687.7"/>
			<path class="st0" d="M99.6,359c0.7,2.1,3.4,2.1,4.1,0l33.9-95.9c1-2.7,1.7-6.8,1.7-9.2c0-2.4,0.7-4.5,3.8-4.5h54.5
				c1.4,0,1.7,2.1,0.3,2.7c-8.2,5.1-10.3,8.6-10.3,16.4v208.3c0,7.9,2.1,11.3,10.3,16.4c1.4,0.7,1,2.7-0.3,2.7h-61
				c-1.4,0-1.7-2.1-0.3-2.7c8.2-5.1,10.3-8.6,10.3-16.4v-160c0-2.1-2.7-2.7-3.4-0.7L94.8,447.1c-0.7,2.1-4.5,2.1-5.1,0L41,316.2
				c-0.7-2.1-3.4-1.4-3.4,0.7v160c0,7.9,2.1,11.3,10.3,16.4c1.4,0.7,1,2.7-0.3,2.7H3c-1.4,0-1.7-2.1-0.3-2.7
				c8.2-5.1,10.3-8.6,10.3-16.4V268.6c0-7.9-2.1-11.3-10.3-16.4c-1.4-0.7-1-2.7,0.3-2.7h57.2c3.1,0,3.8,2.1,3.8,4.5
				c0,2.4,0.3,6.5,1.7,9.2L99.6,359z"/>
			<path class="st0" d="M287,414.2c1.4,0,2.1-1.4,1.7-2.7l-16.1-91.8c-0.7-4.5-4.5-4.5-5.1,0l-16.8,91.8c-0.3,1.4,0.3,2.7,1.7,2.7
				H287z M248.6,432.7c-1.4,0-2.1,0.3-2.4,1.7l-7.9,44.5c-1,6.9,1,9.9,8.6,14.4c1.4,1,1,2.7-0.3,2.7h-40.4c-1.4,0-1.7-2.1-0.3-2.7
				c6.5-4.1,8.6-5.8,9.9-12L257.8,270c1.7-9.2,0-13.4-7.5-17.8c-1.4-1-1-2.7,0.3-2.7h48c2.1,0,3.4,1,3.8,3.1l44.9,228.8
				c1,6.2,3.4,7.9,9.9,12c1.4,0.7,1.4,2.7,0,2.7h-63.7c-1.4,0-2.1-1.7-0.7-2.7c7.5-4.5,9.9-7.5,8.6-14.4l-8.2-44.5
				c-0.3-1.4-1-1.7-2.4-1.7H248.6z"/>
			<path class="st0" d="M447.1,340.9c-2.1,3.4-3.4,6.5-3.4,9.2c0,4.5,2.7,6.9,11.3,7.9l15.1,1.7c4.1,0.3,7.5,1.7,8.6,6.9l19.9,111.7
				c1,5.5,4.1,11,10.6,15.1c1.4,0.7,1,2.7-0.3,2.7h-50c-2.7,0-4.1-1.4-4.5-3.8l-18.5-115.4c-0.7-5.1-3.4-6.9-7.9-7.5l-5.8-1
				c-2.1-0.3-3.1,1-3.1,3.1v105.5c0,7.9,2.1,11.3,10.3,16.4c1.4,0.7,1,2.7-0.3,2.7h-64.4c-1.4,0-1.7-2.1-0.3-2.7
				c8.2-5.1,10.3-8.6,10.3-16.4V268.6c0-7.9-2.1-11.3-10.3-16.4c-1.4-0.7-1-2.7,0.3-2.7h64.4c1.4,0,1.7,2.1,0.3,2.7
				c-8.2,5.1-10.3,8.6-10.3,16.4v71.9c0,1.7,1,2.4,2.4,2.4c1.7,0,2.7-1,3.8-2.7l44.5-71.9c2.7-4.5,4.8-12-1.7-16.1
				c-1.4-0.7-1-2.7,0.3-2.7h42.1c1.4,0,1.7,2.1,0.3,2.7c-7.2,3.8-12,7.5-17.1,15.8L447.1,340.9z"/>
			<path class="st0" d="M520.1,496c-1.4,0-1.7-2.1-0.3-2.7c8.2-5.1,10.3-8.6,10.3-16.4V268.6c0-7.9-2.1-11.3-10.3-16.4
				c-1.4-0.7-1-2.7,0.3-2.7h102.4c2.4,0,3.8,1,4.1,3.4l4.8,37c0.3,2.7,0,4.8-1.7,4.8c-1.4,0-2.1-1-2.7-2.4l-4.8-8.6
				c-9.2-16.4-21.6-20.6-35.6-20.6h-4.5c-5.1,0-7.5,3.1-7.5,10.6v59.6c0,13.7,2.1,16.8,11.6,16.8h1.4c6.5,0,14-3.4,17.8-15.4
				l2.7-8.9c1-3.1,2.1-6.2,4.5-6.2c2.1,0,2.7,2.7,2.7,6.5v63.4c0,3.8-0.3,6.5-2.7,6.5c-2.4,0-3.4-3.1-4.5-6.2l-3.1-9.9
				c-3.8-12-9.9-15.4-17.5-15.4h-1.4c-9.6,0-11.6,3.1-11.6,16.8v90.4c0,7.5,1.7,10.6,7.5,10.6h4.5c14.7,0,26.4-3.8,37-19.5l5.8-8.6
				c1-1.4,2.1-2.4,3.4-2.4c1.7,0,2.4,1.7,1.7,4.8l-7.9,36c-0.7,2.4-1.7,3.4-4.1,3.4H520.1z"/>
			<path class="st0" d="M728.7,268.6c0-7.9-2.1-11.3-10.3-16.4c-1.4-0.7-1-2.7,0.3-2.7h64.4c1.4,0,1.7,2.1,0.3,2.7
				c-8.2,5.1-10.3,8.6-10.3,16.4v208.3c0,7.9,2.1,11.3,10.3,16.4c1.4,0.7,1,2.7-0.3,2.7h-64.4c-1.4,0-1.7-2.1-0.3-2.7
				c8.2-5.1,10.3-8.6,10.3-16.4V268.6z"/>
			<path class="st0" d="M924.9,249.4c10.6,0,14.4-5.1,15.4,3.8l6.5,56.2c0.3,2.7-2.7,3.1-3.8,0.7l-10.6-20.2
				c-8.6-16.4-15.8-24-27.7-24h-1c-9.9,0-12.7,5.1-12.7,12v199c0,7.9,2.1,11.3,10.3,16.4c1.4,0.7,1,2.7-0.3,2.7h-64.4
				c-1.4,0-1.7-2.1-0.3-2.7c8.2-5.1,10.3-8.6,10.3-16.4v-199c0-6.8-2.7-12-12.7-12h-1c-12,0-20.6,7.5-28.4,24l-9.6,20.2
				c-1,2.4-4.1,2.1-3.8-0.7l4.8-56.2c0.7-8.9,4.8-3.8,15.4-3.8H924.9z"/>
			<path class="st0" d="M475.3,767V555.1c0-10-2.6-14.4-13.1-20.9c-1.7-0.9-1.3-3.5,0.4-3.5h82c1.7,0,2.2,2.6,0.4,3.5
				c-10.5,6.5-13.1,10.9-13.1,20.9v184c0,68-30.1,109.9-85.5,109.9c-55.4,0-85.5-41.9-85.5-109.9v-184c0-10-2.6-14.4-13.1-20.9
				c-1.7-0.9-1.3-3.5,0.4-3.5h82c1.7,0,2.2,2.6,0.4,3.5c-10.5,6.5-13.1,10.9-13.1,20.9V767c0,39.7,7.8,64.1,28.8,64.1
				C467.4,831.1,475.3,806.7,475.3,767"/>
			<path class="st0" d="M602.3,654.5c-1.3-2.6-4.4-1.7-4.4,0.9v164.8c0,10,2.6,14.4,13.1,20.9c1.7,0.9,1.3,3.5-0.4,3.5h-56.7
				c-1.7,0-2.2-2.6-0.4-3.5c10.5-6.5,13.1-10.9,13.1-20.9V555.1c0-10-2.6-14.4-13.1-20.9c-1.7-0.9-1.3-3.5,0.4-3.5H601
				c3.9,0,6.1,1.3,7.4,4.8l83.3,185.3c1.3,2.6,4.4,1.7,4.4-0.9V555.1c0-10-2.6-14.4-13.1-20.9c-1.7-0.9-1.3-3.5,0.4-3.5h56.7
				c1.7,0,2.2,2.6,0.4,3.5c-10.5,6.5-13.1,10.9-13.1,20.9v286c0,2.2-1.3,3.5-3.1,3.5H693c-3.9,0-6.1-1.3-7.4-4.8L602.3,654.5z"/>
			<path class="st0" d="M918.9,530.7c13.5,0,18.3-6.5,19.6,4.8l8.3,71.5c0.4,3.5-3.5,3.9-4.8,0.9l-13.5-25.7
				c-10.9-20.9-20.1-30.5-35.3-30.5h-1.3c-12.6,0-16.1,6.5-16.1,15.3v253.3c0,10,2.6,14.4,13.1,20.9c1.7,0.9,1.3,3.5-0.4,3.5h-82
				c-1.7,0-2.2-2.6-0.4-3.5c10.5-6.5,13.1-10.9,13.1-20.9V566.9c0-8.7-3.5-15.3-16.1-15.3h-1.3c-15.3,0-26.2,9.6-36.2,30.5
				l-12.2,25.7c-1.3,3.1-5.2,2.6-4.8-0.9l6.1-71.5c0.9-11.3,6.1-4.8,19.6-4.8H918.9z"/>
			<rect x="0" y="0" class="st1" width="946.9" height="849"/>
		</g>
	</g>
</g>
</svg>
